# AST/ASF file generated using VICON BodyLanguage
# -----------------------------------------------
:version 1.10
:name VICON
:units
  mass 1.0
  length 0.45
  angle deg
:documentation
   .ast/.asf automatically generated from VICON data using
   VICON BodyBuilder and BodyLanguage model FoxedUp or BRILLIANT.MOD
:root
   order TX TY TZ RX RY RZ
   axis XYZ
   position 0 0 0  
   orientation 0 0 0 
:bonedata
  begin
     id 1 
     name lhipjoint
     direction 0.584852 -0.759097 0.285867 
     length 2.43633 
     axis 0 0 0  XYZ
  end
  begin
     id 2 
     name lfemur
     direction 0.34202 -0.939693 0  
     length 7.14704  
     axis 0 0 20  XYZ
    dof rx ry rz
    limits (-160.0 20.0)
           (-70.0 70.0)
           (-60.0 70.0)
  end
  begin
     id 3 
     name ltibia
     direction 0.342022 -0.939692 0   
     length 7.68483   
     axis 0 0 20   XYZ
    dof rx
    limits (-10.0 170.0)
  end
  begin
     id 4 
     name lfoot
     direction 0.0999605 -0.274639 0.956337   
     length 2.40452   
     axis -90 7.62852e-016 20   XYZ
    dof rx rz
    limits (-45.0 90.0)
           (-70.0 20.0)
  end
  begin
     id 5 
     name ltoes
     direction 1.53468e-011 -4.21881e-011 1   
     length 1.19837   
     axis -90 7.62852e-016 20   XYZ
    dof rx
    limits (-90.0 20.0)
  end
  begin
     id 6 
     name rhipjoint
     direction -0.569886 -0.769002 0.289597   
     length 2.40495  
     axis 0 0 0  XYZ 
  end
  begin
     id 7 
     name rfemur
     direction -0.34202 -0.939693 0   
     length 7.45086   
     axis 0 0 -20   XYZ
    dof rx ry rz
    limits (-160.0 20.0)
           (-70.0 70.0)
           (-70.0 60.0)
  end
  begin
     id 8 
     name rtibia
     direction -0.34202 -0.939693 0   
     length 7.76831   
     axis 0 0 -20   XYZ
    dof rx
    limits (-10.0 170.0)
 end
 begin
     id 9 
     name rfoot
     direction -0.0798572 -0.219406 0.97236   
     length 2.35911  
     axis -90 -7.62852e-016 -20   XYZ
    dof rx rz
    limits (-45.0 90.0)
           (-20.0 70.0)
  end
  begin
     id 10 
     name rtoes
     direction -1.53469e-011 -4.21728e-011 1   
     length 1.18261   
     axis -90 -7.62852e-016 -20   XYZ
    dof rx
    limits (-90.0 20.0)
  end
  begin
     id 11 
     name lowerback
     direction 0.0242088 0.999437 0.0232389   
     length 2.1561   
     axis 0 0 0   XYZ
    dof rx ry rz
    limits (-20.0 45.0)
           (-30.0 30.0)
           (-30.0 30.0)
  end
  begin
     id 12 
     name upperback
     direction -0.0356893 0.999013 -0.0264323   
     length 2.14431   
     axis 0 0 0   XYZ
    dof rx ry rz
    limits (-20.0 45.0)
           (-30.0 30.0)
           (-30.0 30.0)
  end
  begin
     id 13 
     name thorax
     direction -0.0472163 0.998194 -0.0371284   
     length 2.16169   
     axis 0 0 0   XYZ
    dof rx ry rz
    limits (-20.0 45.0)
           (-30.0 30.0)
           (-30.0 30.0)
  end
  begin
     id 14 
     name lowerneck
     direction 0.00863244 0.999921 0.00911972   
     length 1.58651   
     axis 0 0 0   XYZ
    dof rx ry rz
    limits (-20.0 45.0)
           (-30.0 30.0)
           (-30.0 30.0)
  end
  begin
     id 15 
     name upperneck
     direction 0.149523 0.979068 -0.138086   
     length 1.57486   
     axis 0 0 0   XYZ
    dof rx ry rz
    limits (-20.0 45.0)
           (-30.0 30.0)
           (-30.0 30.0)
  end
  begin
     id 16
     name head
     direction 0.0445219 0.997708 -0.0509576  
     length 1.6019  
     axis 0 0 0   XYZ
    dof rx ry rz
    limits (-20.0 45.0)
           (-30.0 30.0)
           (-30.0 30.0)
  end
  begin
     id 17 
     name lclavicle
     direction 0.911271 0.381667 -0.154644  
     length 3.80848  
     axis 0 0 0   XYZ
    dof ry rz
    limits (-20.0 10.0)
           (0.0 20.0)
  end
  begin
     id 18 
     name lhumerus
     direction 1 -4.49003e-011 2.1308e-027   
     length 5.19069   
     axis 180 -30 -90   XYZ
    dof rx ry rz
    limits (-60.0 90.0)
           (-90.0 90.0)
           (-90.0 90.0)
  end
  begin
     id 19
     name lradius
     direction 1 -4.48914e-011 4.01554e-027   
     length 3.30016   
     axis 180 -30 -90   XYZ
    dof rx
    limits (-10.0 170.0)
  end
  begin
     id 20
     name lwrist
     direction 1 -4.49003e-011 1.1934e-026   
     length 1.65008   
     axis -8.46377e-015 90 90   XYZ
    dof ry
    limits (-180.0 0.0)
 end
  begin
     id 21 
     name lhand
     direction 1 -4.49034e-011 2.38659e-026   
     length 0.707698   
     axis -1.52313e-014 90 90   XYZ
    dof rx rz
    limits (-90.0 90.0)
           (-45.0 45.0)
  end
  begin
     id 22 
     name lfingers
     direction 1 -4.48691e-011 4.77775e-026   
     length 0.570564   
     axis -3.04623e-014 90 90   XYZ
    dof rx
    limits (0.0 90.0)
  end
  begin
     id 23
     name lthumb
     direction 0.707107 -6.34832e-011 0.707107   
     length 0.819219   
     axis -90 45 -1.62303e-014   XYZ
    dof rx rz
    limits (-45.0 45.0)
           (-45.0 45.0)
  end
  begin
     id 24 
     name rclavicle
     direction -0.815579 0.573708 -0.0754329   
     length 3.54371  
     axis 0 0 0   XYZ 
    dof ry rz
    limits (-10.0 20.0)
           (-20.0 0.0)
  end
  begin
     id 25 
     name rhumerus
     direction -1 -4.48956e-011 3.05351e-028  
     length 5.23924   
     axis 180 30 90   XYZ
    dof rx ry rz
    limits (-90.0 60.0)
           (-90.0 90.0)
           (-90.0 90.0)
  end
  begin
     id 26 
     name rradius
     direction -1 -4.49013e-011 3.53849e-027   
     length 3.32953   
     axis 180 30 90   XYZ
    dof rx
    limits (-10.0 170.0)
  end
  begin
     id 27 
     name rwrist
     direction -1 -4.48901e-011 1.19374e-026   
     length 1.66477   
     axis -8.46377e-015 -90 -90   XYZ
    dof ry
    limits (-180.0 0.0)
  end
  begin
     id 28
     name rhand
     direction -1 -4.48877e-011 2.38764e-026   
     length 0.607414   
     axis -1.52313e-014 -90 -90   XYZ
    dof rx rz
    limits (-90.0 90.0)
           (-45.0 45.0)
  end
  begin
     id 29
     name rfingers
     direction -1 -4.48882e-011 4.77521e-026   
     length 0.489712   
     axis -3.04623e-014 -90 -90   XYZ
    dof rx
    limits (0.0 90.0)
  end
  begin
     id 30
     name rthumb
     direction -0.707107 -6.34974e-011 0.707107   
     length 0.703132   
     axis -90 -45 1.62303e-014   XYZ
    dof rx rz
    limits (-45.0 45.0)
           (-45.0 45.0)
  end
:hierarchy
  begin
    root lhipjoint rhipjoint lowerback
    lhipjoint lfemur
    lfemur ltibia
    ltibia lfoot
    lfoot ltoes
    rhipjoint rfemur
    rfemur rtibia
    rtibia rfoot
    rfoot rtoes
    lowerback upperback
    upperback thorax
    thorax lowerneck lclavicle rclavicle
    lowerneck upperneck
    upperneck head
    lclavicle lhumerus
    lhumerus lradius
    lradius lwrist
    lwrist lhand lthumb
    lhand lfingers
    rclavicle rhumerus
    rhumerus rradius
    rradius rwrist
    rwrist rhand rthumb
    rhand rfingers
  end

#!OML:ASF E:\VariousWalksJay\Project 1\Capture day 1\Session 1\Actor2.ASF
:FULLY-SPECIFIED
:DEGREES
1168
root 4.21452 16.7115 33.2772 189.899 -36.5516 -176.477
lowerback -0.353634 -2.05313 6.53987
upperback -0.43236 -2.79586 1.58078
thorax -0.478474 -1.4406 -2.02343
lowerneck -0.351538 -5.32423 -3.15865
upperneck 7.85758 -8.13897 9.14621
head 3.20691 -4.02696 3.34091
rclavicle 1.05952e-013 -2.78299e-015
rhumerus -31.1583 29.7596 -80.6576
rradius 77.8283
rwrist 12.1389
rhand -21.5698 -3.37092
rfingers 7.12502
rthumb 4.82419 -33.296
lclavicle 1.05952e-013 -2.78299e-015
lhumerus -30.4777 -28.717 88.1959
lradius 49.8402
lwrist -1.244
lhand -26.9209 -18.5808
lfingers 7.12502
lthumb -0.343662 11.3987
rfemur -33.975 6.51506 26.499
rtibia 43.1885
rfoot -18.6649 -13.2253
rtoes 3.74392
lfemur -8.71046 3.21197 -11.6725
ltibia 58.0623
lfoot -9.14903 6.30291
ltoes -6.02264
1169
root 4.17897 16.7267 33.1838 189.441 -36.8738 -176.043
lowerback -0.322633 -1.90621 6.84415
upperback -0.417795 -2.60815 1.76509
thorax -0.469737 -1.35114 -2.00373
lowerneck -0.343777 -5.45614 -3.23817
upperneck 7.89338 -8.31533 9.12914
head 3.23424 -4.11538 3.34265
rclavicle 1.12512e-013 -1.78906e-014
rhumerus -30.7322 29.6828 -80.3133
rradius 77.5339
rwrist 12.6489
rhand -23.2418 -3.83955
rfingers 7.12502
rthumb 3.20962 -33.7951
lclavicle 1.12512e-013 -1.78906e-014
lhumerus -30.8907 -29.0253 88.5556
lradius 49.8697
lwrist -1.12977
lhand -26.651 -18.3514
lfingers 7.12502
lthumb -0.0830197 11.6283
rfemur -33.0895 6.33196 27.0437
rtibia 42.674
rfoot -18.806 -13.1856
rtoes 3.61146
lfemur -10.2007 2.82476 -11.13
ltibia 60.2047
lfoot -9.61248 5.25971
ltoes -6.92917
1170
root 4.14375 16.7416 33.0911 188.973 -37.1976 -175.649
lowerback -0.169882 -1.79173 7.16601
upperback -0.527564 -2.44402 1.88894
thorax -0.662683 -1.28202 -2.04808
lowerneck -0.0760368 -5.57737 -3.30621
upperneck 7.96495 -8.49768 9.13321
head 3.22639 -4.21664 3.3563
rclavicle -4.52235e-014 2.8625e-014
rhumerus -30.4671 29.5368 -80.0908
rradius 77.3011
rwrist 12.5482
rhand -23.3662 -3.3896
rfingers 7.12502
rthumb 3.08946 -33.347
lclavicle -4.52235e-014 2.8625e-014
lhumerus -31.5957 -29.3189 88.9508
lradius 49.9908
lwrist -0.969665
lhand -26.3368 -18.0029
lfingers 7.12502
lthumb 0.220447 11.9768
rfemur -32.1805 6.14395 27.5467
rtibia 42.1451
rfoot -18.9443 -13.1396
rtoes 3.68152
lfemur -11.6283 2.44695 -10.6276
ltibia 62.1503
lfoot -9.99576 4.38441
ltoes -7.59093
1171
root 4.10537 16.7567 32.9983 188.499 -37.4256 -175.225
lowerback -0.128511 -1.64763 7.42889
upperback -0.53789 -2.25834 2.08867
thorax -0.681742 -1.1959 -1.98887
lowerneck 0.0133571 -5.72608 -3.51525
upperneck 8.0135 -8.70105 9.14756
head 3.25467 -4.32405 3.39431
rclavicle -4.96962e-015 -2.50469e-014
rhumerus -30.0395 29.4169 -79.6818
rradius 77.0862
rwrist 12.6075
rhand -23.7595 -3.02046
rfingers 7.12502
rthumb 2.70966 -32.983
lclavicle -4.96962e-015 -2.50469e-014
lhumerus -32.0838 -29.4804 89.3318
lradius 50.071
lwrist -0.826736
lhand -26.131 -17.8293
lfingers 7.12502
lthumb 0.419224 12.1501
rfemur -31.279 5.98471 28.0609
rtibia 41.6107
rfoot -19.1112 -13.0149
rtoes 4.2887
lfemur -13.0317 2.16311 -10.133
ltibia 63.9382
lfoot -10.3666 3.7151
ltoes -8.22597
1172
root 4.06864 16.7714 32.905 188.042 -37.6682 -174.837
lowerback -0.11113 -1.5619 7.59959
upperback -0.448552 -2.16095 2.35091
thorax -0.585756 -1.14832 -1.81604
lowerneck -0.41648 -5.82409 -3.78215
upperneck 8.18571 -8.81404 9.07276
head 3.41485 -4.3693 3.40046
rclavicle -1.38155e-014 2.14687e-014
rhumerus -29.2758 29.4714 -79.1008
rradius 76.7872
rwrist 12.7147
rhand -24.2236 -2.80066
rfingers 7.12502
rthumb 2.26143 -32.7684
lclavicle -1.38155e-014 2.14687e-014
lhumerus -32.3582 -29.5188 89.6368
lradius 50.2098
lwrist -0.580721
lhand -25.8915 -17.6233
lfingers 7.12502
lthumb 0.650547 12.3554
rfemur -30.3865 5.77349 28.5652
rtibia 41.0748
rfoot -19.1556 -12.973
rtoes 4.04683
lfemur -14.416 1.95918 -9.65219
ltibia 65.5409
lfoot -10.6996 2.76777
ltoes -8.28554
1173
root 4.031 16.7845 32.8132 187.658 -37.9064 -174.551
lowerback -0.0800147 -1.3431 7.8565
upperback -0.598669 -1.86117 2.36025
thorax -0.74017 -1.01055 -1.94823
lowerneck 0.109766 -6.03363 -3.71375
upperneck 8.145 -9.12381 9.09386
head 3.32289 -4.54048 3.39682
rclavicle -5.06901e-014 -1.59028e-015
rhumerus -29.2639 28.9635 -79.0085
rradius 76.5444
rwrist 13.0112
rhand -24.5513 -2.6017
rfingers 7.12502
rthumb 1.94491 -32.5726
lclavicle -5.06901e-014 -1.59028e-015
lhumerus -33.2566 -30.1599 90.0651
lradius 50.48
lwrist -0.302317
lhand -25.6722 -17.2401
lfingers 7.12502
lthumb 0.862342 12.7379
rfemur -29.5118 5.42148 28.9899
rtibia 40.5374
rfoot -19.2667 -12.8025
rtoes 4.08171
lfemur -15.7984 1.6844 -9.30509
ltibia 66.9914
lfoot -11.0568 2.03576
ltoes -8.61362
1174
root 3.99419 16.7982 32.7232 187.313 -38.0604 -174.255
lowerback -0.0131632 -1.19579 8.10447
upperback -0.665603 -1.66012 2.43842
thorax -0.833168 -0.919477 -2.0044
lowerneck 0.0656877 -6.14244 -3.79202
upperneck 8.21304 -9.2745 9.08972
head 3.37107 -4.6148 3.40171
rclavicle -8.17999e-014 -7.15625e-015
rhumerus -28.9068 28.7158 -78.7675
rradius 76.333
rwrist 12.924
rhand -24.8043 -2.15137
rfingers 7.12502
rthumb 1.70057 -32.1243
lclavicle -8.17999e-014 -7.15625e-015
lhumerus -33.8352 -30.4684 90.3254
lradius 50.6721
lwrist -0.124251
lhand -25.395 -17.0002
lfingers 7.12502
lthumb 1.1301 12.9766
rfemur -28.6779 5.30289 29.3814
rtibia 39.9893
rfoot -19.4056 -12.7685
rtoes 4.35868
lfemur -17.2132 1.51034 -8.98453
ltibia 68.2888
lfoot -11.3703 1.43505
ltoes -8.9514
1175
root 3.958 16.8111 32.6313 186.957 -38.2726 -173.987
lowerback -0.0522645 -1.04859 8.19899
upperback -0.717404 -1.47333 2.57525
thorax -0.845487 -0.832183 -1.91813
lowerneck 0.203824 -6.25132 -3.89113
upperneck 8.16891 -9.41403 9.06487
head 3.34507 -4.69089 3.40971
rclavicle -4.68138e-014 -9.93923e-015
rhumerus -28.5396 28.5674 -78.4432
rradius 76.0008
rwrist 13.2373
rhand -25.4039 -2.02484
rfingers 7.12502
rthumb 1.12152 -32.0016
lclavicle -4.68138e-014 -9.93923e-015
lhumerus -34.5197 -30.79 90.6955
lradius 50.9561
lwrist -7.56823e-005
lhand -25.1229 -16.6439
lfingers 7.12502
lthumb 1.39291 13.3313
rfemur -27.8015 5.09937 29.7707
rtibia 39.4268
rfoot -19.562 -12.7333
rtoes 4.47055
lfemur -18.5695 1.27415 -8.6867
ltibia 69.4157
lfoot -11.6933 0.8512
ltoes -9.44564
1176
root 3.9247 16.8244 32.5399 186.632 -38.6205 -173.763
lowerback -0.0524035 -1.04585 8.20226
upperback -0.747736 -1.47863 2.79321
thorax -0.870912 -0.840789 -1.69456
lowerneck 0.0625225 -6.28716 -4.19567
upperneck 8.48278 -9.49182 9.32866
head 3.1526 -4.69531 3.18941
rclavicle 7.06679e-014 -1.98785e-014
rhumerus -28.0383 28.6597 -78.0498
rradius 75.7282
rwrist 13.4218
rhand -25.7175 -1.74765
rfingers 7.12502
rthumb 0.818592 -31.7258
lclavicle 7.06679e-014 -1.98785e-014
lhumerus -35.0815 -30.828 91.0217
lradius 51.2171
lwrist 0.124689
lhand -24.9161 -16.209
lfingers 7.12502
lthumb 1.59258 13.7648
rfemur -26.949 4.73291 30.141
rtibia 38.8537
rfoot -19.7261 -12.6719
rtoes 4.6438
lfemur -20.0101 0.916477 -8.4198
ltibia 70.4242
lfoot -11.9584 0.4029
ltoes -9.77574
1177
root 3.88052 16.8364 32.4454 186.225 -38.6361 -173.493
lowerback -0.125026 -0.777634 8.41394
upperback -0.740496 -1.13403 2.80181
thorax -0.795424 -0.669663 -1.80826
lowerneck 0.0498861 -6.45781 -4.03477
upperneck 8.23356 -9.67816 8.98962
head 3.42113 -4.81894 3.39268
rclavicle -1.19072e-013 -2.38542e-014
rhumerus -27.8094 28.1204 -77.8727
rradius 75.4956
rwrist 13.5693
rhand -26.1518 -1.55832
rfingers 7.12502
rthumb 0.399114 -31.5377
lclavicle -1.19072e-013 -2.38542e-014
lhumerus -35.6944 -31.4937 91.2822
lradius 51.4836
lwrist 0.326992
lhand -24.5364 -16.055
lfingers 7.12502
lthumb 1.95929 13.9157
rfemur -25.9774 4.53736 30.5176
rtibia 38.2661
rfoot -19.9386 -12.5116
rtoes 4.71957
lfemur -21.1747 0.839163 -8.20201
ltibia 71.2471
lfoot -12.2892 0.0107324
ltoes -10.1613
1178
root 3.84188 16.8449 32.3533 185.881 -38.7871 -173.273
lowerback -0.0975296 -0.707346 8.5219
upperback -0.86102 -1.03578 2.8929
thorax -0.926717 -0.632042 -1.77278
lowerneck 0.178535 -6.50553 -4.15307
upperneck 8.5094 -9.78618 9.22181
head 3.15535 -4.84595 3.14134
rclavicle -4.62174e-014 -1.66979e-014
rhumerus -27.6033 28.1158 -77.7843
rradius 75.2611
rwrist 13.6578
rhand -26.3218 -1.22307
rfingers 7.12502
rthumb 0.234923 -31.2027
lclavicle -4.62174e-014 -1.66979e-014
lhumerus -36.5307 -31.6781 91.5851
lradius 51.7756
lwrist 0.485059
lhand -24.1042 -15.8359
lfingers 7.12502
lthumb 2.37674 14.1307
rfemur -25.0856 4.12499 30.8795
rtibia 37.6884
rfoot -20.0879 -12.2765
rtoes 4.89089
lfemur -22.4647 0.637667 -8.01757
ltibia 71.9917
lfoot -12.5675 -0.238564
ltoes -10.4792
1179
root 3.80314 16.8534 32.2589 185.451 -38.9725 -172.999
lowerback -0.0882796 -0.628832 8.61338
upperback -0.89965 -0.93646 3.03422
thorax -0.961332 -0.58924 -1.67779
lowerneck 0.11034 -6.57725 -4.30052
upperneck 8.56433 -9.87323 9.1656
head 3.19348 -4.88991 3.14025
rclavicle -2.64384e-014 1.11319e-014
rhumerus -27.3269 28.1108 -77.5738
rradius 75.1109
rwrist 13.6512
rhand -26.7026 -1.45781
rfingers 7.12502
rthumb -0.132897 -31.4375
lclavicle -2.64384e-014 1.11319e-014
lhumerus -37.2198 -31.9136 91.8922
lradius 52.0765
lwrist 0.662883
lhand -23.7328 -15.4824
lfingers 7.12502
lthumb 2.73539 14.4798
rfemur -24.1166 3.80074 31.2812
rtibia 37.1074
rfoot -20.2958 -12.1611
rtoes 4.56722
lfemur -23.6708 0.414561 -7.78098
ltibia 72.6081
lfoot -12.9086 -0.475928
ltoes -10.6659
1180
root 3.7632 16.8572 32.1699 185.116 -39.1214 -172.764
lowerback -0.0966088 -0.456932 8.79482
upperback -1.03736 -0.702289 3.03725
thorax -1.08026 -0.483844 -1.77589
lowerneck 0.240653 -6.72635 -4.23165
upperneck 8.57733 -10.0846 9.13491
head 3.18602 -4.99878 3.1154
rclavicle -1.06747e-013 5.56597e-015
rhumerus -27.3837 27.8449 -77.6402
rradius 75.0224
rwrist 13.3358
rhand -27.1976 -1.53444
rfingers 7.12502
rthumb -0.610944 -31.5133
lclavicle -1.06747e-013 5.56597e-015
lhumerus -38.1166 -32.542 92.2443
lradius 52.4422
lwrist 0.942874
lhand -23.2997 -15.1071
lfingers 7.12502
lthumb 3.1537 14.8493
rfemur -23.252 3.49431 31.6156
rtibia 36.5754
rfoot -20.522 -11.9874
rtoes 4.93659
lfemur -24.9818 0.225077 -7.63449
ltibia 73.1372
lfoot -13.2449 -0.584163
ltoes -10.853
1181
root 3.72335 16.864 32.0799 184.731 -39.2718 -172.512
lowerback -0.171862 -0.331007 8.86269
upperback -1.06062 -0.550054 3.15508
thorax -1.04651 -0.411424 -1.69374
lowerneck 0.210481 -6.83086 -4.22343
upperneck 8.30348 -10.1615 8.7338
head 3.44698 -5.0713 3.3203
rclavicle 1.19271e-015 -3.26007e-014
rhumerus -27.067 27.7566 -77.3995
rradius 74.8421
rwrist 13.2325
rhand -27.6192 -1.5581
rfingers 7.12502
rthumb -1.01813 -31.5354
lclavicle 1.19271e-015 -3.26007e-014
lhumerus -38.7825 -32.9162 92.5645
lradius 52.7891
lwrist 1.18695
lhand -22.8579 -14.724
lfingers 7.12502
lthumb 3.5803 15.2256
rfemur -22.4018 2.94095 31.9769
rtibia 36.0788
rfoot -20.6011 -11.7109
rtoes 4.3298
lfemur -26.3146 0.115474 -7.52726
ltibia 73.5774
lfoot -13.5167 -0.505687
ltoes -12.6779
1182
root 3.67892 16.8632 31.9895 184.383 -39.354 -172.327
lowerback -0.247526 -0.226887 8.94125
upperback -1.0786 -0.426148 3.24535
thorax -1.0104 -0.352484 -1.64536
lowerneck 0.0959494 -6.89528 -4.45579
upperneck 8.53432 -10.2831 9.08836
head 3.21994 -5.09626 3.12223
rclavicle -1.26228e-014 2.62396e-014
rhumerus -26.7119 27.7048 -77.1887
rradius 74.653
rwrist 13.1382
rhand -27.7895 -1.35971
rfingers 7.12502
rthumb -1.18259 -31.3362
lclavicle -1.26228e-014 2.62396e-014
lhumerus -39.4228 -33.2094 92.8375
lradius 53.1225
lwrist 1.51855
lhand -22.4516 -14.3689
lfingers 7.12502
lthumb 3.97266 15.5738
rfemur -21.5426 2.58066 32.2537
rtibia 35.6306
rfoot -20.9787 -11.311
rtoes 6.00766
lfemur -27.3968 -0.068268 -7.45719
ltibia 73.8135
lfoot -13.7075 -0.768094
ltoes -11.6381
